<?xml version="1.0" encoding="utf-8"?>
<!-- Generator: Adobe Illustrator 19.2.1, SVG Export Plug-In . SVG Version: 6.00 Build 0)  -->
<svg version="1.1" id="Layer_1" xmlns="http://www.w3.org/2000/svg" xmlns:xlink="http://www.w3.org/1999/xlink" x="0px" y="0px"
	 viewBox="0 0 1024 1850" style="enable-background:new 0 0 1024 1850;" xml:space="preserve">
<style type="text/css">
	.st0{font-family:'Goldsaber-Regular';}
	.st1{font-size:19.2459px;}
	.st2{fill:#F1F2F2;}
	.st3{font-size:22.9402px;}
	.st4{font-family:'Noteworthy-Light';}
	.st5{font-size:31.1641px;}
	.st6{font-size:39.7273px;}
	.st7{font-size:34.7513px;}
	.st8{fill:#38A4DD;}
	.st9{fill:#78C47A;}
	.st10{fill:#B0BFC6;}
	.st11{fill:#F8B4B6;}
	.st12{fill:#FEED76;}
	.st13{font-family:'Noteworthy-Bold';}
	.st14{letter-spacing:-1;}
	.st15{fill:#D8D8D8;}
	.st16{fill:#39A3DC;}
	.st17{font-size:26.6101px;}
	.st18{fill:#FFFFFF;}
	.st19{font-size:31.2593px;}
	.st20{font-size:42.4656px;}
	.st21{font-size:33.3618px;}
	.st22{font-size:17.4631px;}
	.st23{font-size:16.8672px;}
	.st24{font-size:28.3255px;}
	.st25{font-size:28.6963px;}
</style>
<text transform="matrix(1 0 0 1 105.88 504.7686)" class="st0 st1">coder factory</text>
<circle cx="499.2" cy="495.3" r="55.4"/>
<text transform="matrix(1 0 0 1 454.9561 505.2129)" class="st2 st0 st1">factory</text>
<text transform="matrix(1 0 0 1 368.6644 505.2129)" class="st0 st1">coder</text>
<text transform="matrix(1 0 0 1 559.6974 505.2119)" class="st0 st1">&gt;</text>
<text transform="matrix(1 0 0 1 353.6627 504.7686)" class="st0 st1">&lt;</text>
<circle cx="799.2" cy="495.3" r="55.4"/>
<text transform="matrix(1 0 0 1 754.9681 505.2129)" class="st2 st0 st1">factory</text>
<text transform="matrix(1 0 0 1 668.6763 505.2129)" class="st0 st1">coder</text>
<text transform="matrix(1 0 0 1 248.8043 659.4832)" class="st0 st3">factory</text>
<text transform="matrix(1 0 0 1 248.8043 636.0481)" class="st4 st5">coder</text>
<text transform="matrix(1 0 0 1 440.1036 659.4832)" class="st0 st3">factory</text>
<text transform="matrix(1 0 0 1 440.1036 636.0481)" class="st4 st5">coder</text>
<text transform="matrix(1 0 0 1 421.9918 636.0476)" class="st0 st3">&lt;</text>
<text transform="matrix(1 0 0 1 549.5953 659.4836)" class="st0 st3">&gt;</text>
<text transform="matrix(1 0 0 1 629.8063 659.4827)" class="st0 st3">factory</text>
<text transform="matrix(1 0 0 1 629.8063 636.0481)" class="st4 st5">coder</text>
<text transform="matrix(0.6255 0 0 1 613.1836 654.2329)" class="st0 st6">[</text>
<text transform="matrix(0.6255 0 0 1 738.7971 654.233)" class="st0 st6">]</text>
<text transform="matrix(1 0 0 1 105.8801 258.9192)" class="st4 st7">Embrace the present. Change the future.</text>
<rect x="263.4" y="743.7" class="st8" width="127.7" height="75"/>
<rect x="604.5" y="743.7" class="st9" width="127.7" height="75"/>
<rect x="435.5" y="743.7" class="st10" width="127.7" height="75"/>
<rect x="773.5" y="743.7" class="st11" width="127.7" height="75"/>
<rect x="97.2" y="743.7" class="st12" width="127.7" height="75"/>
<circle cx="158.6" cy="896.2" r="55.4"/>
<text transform="matrix(1 0 0 1 114.3134 906.0844)" class="st2 st0 st1">#FEED76</text>
<circle cx="329.5" cy="896.2" r="55.4"/>
<text transform="matrix(1 0 0 1 285.2536 906.0844)" class="st2 st0 st1">#38a4dd</text>
<circle cx="498" cy="896.2" r="55.4"/>
<text transform="matrix(1 0 0 1 453.7184 906.0844)" class="st2 st0 st1">#b0bfc6</text>
<circle cx="668.7" cy="896.2" r="55.4"/>
<text transform="matrix(1 0 0 1 624.4156 906.0844)" class="st2 st0 st1">#78c47a</text>
<circle cx="837.4" cy="896.2" r="55.4"/>
<text transform="matrix(1 0 0 1 793.1234 906.0844)" class="st2 st0 st1">#f8b4b6</text>
<text transform="matrix(1 0 0 1 248.8043 636.0481)" class="st4 st5">coder</text>
<text transform="matrix(1 0 0 1 105.8802 1079.5413)"><tspan x="0" y="0" class="st13 st5">Colors</tspan><tspan x="88.3" y="0" class="st13 st5 st14">:</tspan><tspan x="94.9" y="0" class="st13 st5"> </tspan></text>
<text transform="matrix(1 0 0 1 224.897 1079.5415)"><tspan x="0" y="0" class="st4 st5">Clean, vibrant and fun. Lots of white and black to keep the</tspan><tspan x="0" y="37.4" class="st4 st5">site modern, and fresh.</tspan></text>
<rect x="106" y="1346.9" class="st15" width="804" height="282.4"/>
<rect x="124.1" y="1372.8" class="st16" width="371.7" height="230.5"/>
<circle cx="352.9" cy="1488.1" r="76.6"/>
<text transform="matrix(1 0 0 1 291.6522 1501.7412)" class="st2 st0 st17">factory</text>
<text transform="matrix(1 0 0 1 172.3431 1501.7412)" class="st0 st17">coder</text>
<text transform="matrix(1 0 0 1 436.472 1501.7402)" class="st0 st17">&gt;</text>
<text transform="matrix(1 0 0 1 151.6014 1501.127)" class="st0 st17">&lt;</text>
<rect x="516.8" y="1372.8" class="st18" width="371.7" height="230.5"/>
<text transform="matrix(1 0 0 1 646.6464 1488.0955)" class="st0 st19">smith</text>
<text transform="matrix(1 0 0 1 646.6464 1456.1619)" class="st4 st20">john</text>
<text transform="matrix(1 0 0 1 621.9667 1456.1609)" class="st0 st19">&lt;</text>
<text transform="matrix(1 0 0 1 749.5145 1488.0955)" class="st0 st19">&gt;</text>
<text transform="matrix(1.0007 0 0 1 633.1987 1519.1495)" class="st4 st21">Instructor</text>
<text transform="matrix(1 0 0 1 529.2816 1571.1252)" class="st0 st22">0404 000 444  |  j.smith@cfa.edu.au</text>
<text transform="matrix(1 0 0 1 596.953 1595.6433)" class="st0 st23">coderfactory.edu.au</text>
<text transform="matrix(1 0 0 1 114.3131 1229.0295)"><tspan x="0" y="0" class="st13 st5">Fonts</tspan><tspan x="79.2" y="0" class="st13 st5 st14">:</tspan><tspan x="85.7" y="0" class="st13 st5"> </tspan></text>
<text transform="matrix(1 0 0 1 224.8965 1229.415)" class="st4 st24">Noteworthy</text>
<text transform="matrix(1 0 0 1 224.8971 1261.9753)" class="st0 st3">Goldsaber - regular</text>
<text transform="matrix(1 0 0 1 135.9855 314.2869)"><tspan x="0" y="0" class="st4 st25">Why wish for the ability to be a part of such an innovative space. </tspan><tspan x="0" y="34.4" class="st4 st25">Embrace the present, learn, and be at the forefront of digital innovation. </tspan></text>
<text transform="matrix(1 0 0 1 89.8772 248.0658)" class="st13 st5">‘ </text>
<text transform="matrix(1 0 0 1 629.8063 248.0659)" class="st13 st5">’ </text>
<text transform="matrix(1 0 0 1 469.1248 97.7883)" class="st0 st1">coder factory academy, stage 1 rebrand</text>
<text transform="matrix(1 0 0 1 724.1084 123.2852)" class="st0 st1">by justin davidson</text>
<text transform="matrix(1 0 0 1 678.3534 1763.7388)" class="st0 st1">justin davidson, 2016</text>
</svg>
